<?xml version="1.0" standalone="no"?><!-- Generator: Gravit.io --><svg xmlns="http://www.w3.org/2000/svg" xmlns:xlink="http://www.w3.org/1999/xlink" style="isolation:isolate" viewBox="33.169 79.538 233.415 190.924" width="233.415" height="190.924"><g id="Group"><g style="mix-blend-mode:normal;" opacity="0.98"><path d="M 131.712 84.038 L 131.712 84.038 C 186.099 84.038 230.254 124.797 230.254 175 L 230.254 175 C 230.254 225.203 186.099 265.962 131.712 265.962 L 131.712 265.962 C 77.325 265.962 33.169 225.203 33.169 175 L 33.169 175 C 33.169 124.797 77.325 84.038 131.712 84.038 Z" style="stroke:none;fill:#40D5C6;stroke-miterlimit:10;"/></g><g style="mix-blend-mode:normal;" opacity="0.98"><path d="M 163.542 84.038 L 163.542 84.038 C 217.929 84.038 262.085 124.797 262.085 175 L 262.085 175 C 262.085 225.203 217.929 265.962 163.542 265.962 L 163.542 265.962 C 109.155 265.962 65 225.203 65 175 L 65 175 C 65 124.797 109.155 84.038 163.542 84.038 Z" style="stroke:none;fill:#40D5C6;stroke-miterlimit:10;"/><path d="M 163.542 84.038 L 163.542 84.038 C 217.929 84.038 262.085 124.797 262.085 175 L 262.085 175 C 262.085 225.203 217.929 265.962 163.542 265.962 L 163.542 265.962 C 109.155 265.962 65 225.203 65 175 L 65 175 C 65 124.797 109.155 84.038 163.542 84.038 Z" style="fill:none;stroke:#FFFFFF;stroke-width:3;stroke-linecap:square;stroke-miterlimit:3;"/></g><g transform="matrix(1.136,0,0,1.136,119.254,131.92)"><text transform="matrix(1,0,0,1,0,58.787)" style="font-family:&quot;Open Sans&quot;;font-weight:400;font-size:55px;font-style:normal;fill:#000000;stroke:none;">CD</text></g></g></svg>